<svg width="50" height="50" viewBox="0 0 50 50" fill="none" xmlns="http://www.w3.org/2000/svg">
<circle cx="25" cy="25" r="25" fill="#D9D9D9"/>
<path d="M25 12.5C18.1 12.5 12.5 18.1 12.5 25C12.5 31.9 18.1 37.5 25 37.5C31.9125 37.5 37.5 31.9 37.5 25C37.5 18.1 31.9125 12.5 25 12.5ZM19.5125 33.35C20.0125 30.55 22.0125 28.5125 25 28.5125C27.9875 28.5125 29.9875 30.5625 30.4875 33.3625C28.9125 34.3875 27.025 35 25 35C22.975 35 21.0875 34.3875 19.5125 33.35ZM25 23.7625C23.9625 23.7625 23.125 22.925 23.125 21.8875C23.125 20.85 23.9625 20.0125 25 20.0125C26.0375 20.0125 26.875 20.85 26.875 21.8875C26.875 22.925 26.0375 23.7625 25 23.7625ZM32.575 31.525C31.65 28.85 29.5875 26.6875 26.525 26.15V25.975C28.1875 25.35 29.375 23.7625 29.375 21.8875C29.375 19.475 27.4125 17.5125 25 17.5125C22.5875 17.5125 20.625 19.475 20.625 21.8875C20.625 23.7625 21.8125 25.35 23.475 25.975V26.15C20.4125 26.6875 18.35 28.85 17.425 31.525C15.9125 29.775 15 27.5 15 25C15 19.475 19.475 15 25 15C30.525 15 35 19.475 35 25C35 27.5 34.0875 29.775 32.575 31.525Z" fill="#2B2D33"/>
</svg>
