<svg width="30" height="30" viewBox="0 0 30 30" fill="none" xmlns="http://www.w3.org/2000/svg">
<path d="M7.5 18.75C7.5 17.625 6.75 16.75 5.875 16.375V16.25H22.5V25H7.5V18.75ZM11.25 13.75V8.75C11.25 6.625 13 5 15 5C17 5 18.75 6.625 18.75 8.75V13.75H11.25ZM13.75 22.5H16.25V18.75H13.75V22.5ZM6.25 27.5H23.75C24.5 27.5 25 26.875 25 26.25V15C25 14.25 24.5 13.75 23.75 13.75H21.25V8.75C21.25 5.25 18.5 2.5 15 2.5C11.625 2.5 8.75 5.25 8.75 8.75V13.75H6.25C5.5 13.75 5 14.25 5 15V26.25C5 26.875 5.5 27.5 6.25 27.5Z" fill="#1D7FD8"/>
</svg>
