<svg width="30" height="30" viewBox="0 0 30 30" fill="none" xmlns="http://www.w3.org/2000/svg">
<path d="M15 2.5C8.1 2.5 2.5 8.1 2.5 15C2.5 21.9 8.1 27.5 15 27.5C21.9125 27.5 27.5 21.9 27.5 15C27.5 8.1 21.9125 2.5 15 2.5ZM9.5125 23.35C10.0125 20.55 12.0125 18.5125 15 18.5125C17.9875 18.5125 19.9875 20.5625 20.4875 23.3625C18.9125 24.3875 17.025 25 15 25C12.975 25 11.0875 24.3875 9.5125 23.35ZM15 13.7625C13.9625 13.7625 13.125 12.925 13.125 11.8875C13.125 10.85 13.9625 10.0125 15 10.0125C16.0375 10.0125 16.875 10.85 16.875 11.8875C16.875 12.925 16.0375 13.7625 15 13.7625ZM22.575 21.525C21.65 18.85 19.5875 16.6875 16.525 16.15V15.975C18.1875 15.35 19.375 13.7625 19.375 11.8875C19.375 9.475 17.4125 7.5125 15 7.5125C12.5875 7.5125 10.625 9.475 10.625 11.8875C10.625 13.7625 11.8125 15.35 13.475 15.975V16.15C10.4125 16.6875 8.35 18.85 7.425 21.525C5.9125 19.775 5 17.5 5 15C5 9.475 9.475 5 15 5C20.525 5 25 9.475 25 15C25 17.5 24.0875 19.775 22.575 21.525Z" fill="#2B2D33"/>
</svg>
