<svg width="27" height="27" viewBox="0 0 27 27" fill="none" xmlns="http://www.w3.org/2000/svg">
<path d="M22.8261 14.2174L21.1304 12.5217V9.13043C21.1304 4.04348 17.087 0 12 0C6.91304 0 2.86957 4.04348 2.86957 9.13043V12.5217L1.17391 14.2174C-0.391304 15.7826 -0.391304 18.2609 1.17391 19.6957L1.95652 20.4783C2.21739 20.7391 2.47826 20.8696 2.86957 20.8696H4.69565C7.95652 20.8696 6.91304 26.087 12 26.087C17.087 26.087 16.1739 20.8696 19.3043 20.8696H21.1304C21.5217 20.8696 21.7826 20.7391 22.0435 20.4783L22.8261 19.6957C24.3913 18.1304 24.3913 15.7826 22.8261 14.2174ZM12 23.4783C9.78261 23.4783 10.4348 21.6522 8.47826 21V20.8696H15.5217V21C13.5652 21.6522 14.2174 23.4783 12 23.4783ZM21 17.8696L20.6087 18.2609H3.3913L3 17.8696C2.47826 17.3478 2.47826 16.5652 3 16.0435L5.08696 13.9565C5.34783 13.6957 5.47826 13.4348 5.47826 13.0435V9.13043C5.47826 5.47826 8.34783 2.6087 12 2.6087C15.6522 2.6087 18.5217 5.47826 18.5217 9.13043V13.0435C18.5217 13.4348 18.6522 13.6957 18.913 13.9565L21 16.0435C21.5217 16.5652 21.5217 17.3478 21 17.8696Z" fill="#E3CC24"/>
<path fill-rule="evenodd" clip-rule="evenodd" d="M18.8914 21.9751C18.0649 21.9502 17.3272 21.5928 16.8021 21.0348C16.8011 21.0348 16.8011 21.0338 16.8011 21.0338C16.2761 20.4758 15.9636 19.7172 15.9886 18.8906C16.0135 18.0641 16.3719 17.3264 16.9299 16.8014C17.4879 16.2753 18.2466 15.9638 19.0731 15.9888C19.8996 16.0138 20.6373 16.3711 21.1624 16.9291H21.1634C21.6884 17.4881 22.0009 18.2458 21.9759 19.0723C21.95 19.8988 21.5926 20.6375 21.0346 21.1626C20.4766 21.6877 19.7179 22.0001 18.8914 21.9751ZM26.5957 18.134L24.8328 17.7247C24.7041 17.1268 24.4874 16.5628 24.195 16.0447L25.2441 14.5693C25.3829 14.3757 25.3639 14.1111 25.2012 13.9375L24.3936 13.08C24.2309 12.9063 23.9684 12.8724 23.7657 12.9981L22.2295 13.9564C21.7304 13.633 21.1803 13.3824 20.5914 13.2187L20.2899 11.4339C20.25 11.1993 20.0504 11.0246 19.8128 11.0177L18.6359 10.9817C18.3973 10.9747 18.1877 11.1364 18.1338 11.368L17.7255 13.1319C17.1276 13.2597 16.5636 13.4763 16.0445 13.7688L14.5691 12.7196C14.3755 12.5819 14.1109 12.5998 13.9382 12.7626L13.0798 13.5701C12.9071 13.7328 12.8731 13.9964 12.9989 14.198L13.9572 15.7343C13.6338 16.2334 13.3832 16.7844 13.2185 17.3733L11.4337 17.6738C11.1991 17.7137 11.0254 17.9134 11.0174 18.151L10.9825 19.3289C10.9745 19.5664 11.1362 19.7761 11.3688 19.83L13.1317 20.2382C13.2604 20.8362 13.4771 21.4012 13.7695 21.9192L12.7194 23.3946C12.5817 23.5883 12.5996 23.8528 12.7633 24.0255L13.5709 24.884C13.7336 25.0567 13.9961 25.0916 14.1978 24.9648L15.734 24.0065C16.2342 24.3309 16.7842 24.5815 17.3731 24.7452L17.6746 26.53C17.7135 26.7646 17.9132 26.9393 18.1517 26.9463L19.3286 26.9822C19.5672 26.9892 19.7768 26.8275 19.8307 26.5959L20.239 24.8321C20.837 24.7043 21.4009 24.4877 21.919 24.1942L23.3954 25.2443C23.589 25.3821 23.8526 25.3641 24.0263 25.2004L24.8837 24.3938C25.0574 24.2301 25.0914 23.9676 24.9656 23.766L24.0073 22.2297C24.3307 21.7296 24.5813 21.1796 24.745 20.5906L26.5308 20.2901C26.7654 20.2502 26.9391 20.0506 26.9461 19.813L26.982 18.6351C26.989 18.3975 26.8273 18.1879 26.5957 18.134Z" fill="#88999C"/>
</svg>
