<svg width="18" height="20" viewBox="0 0 18 20" fill="none" xmlns="http://www.w3.org/2000/svg">
<path fill-rule="evenodd" clip-rule="evenodd" d="M5.5625 1.46875C5.5625 0.916465 6.01021 0.46875 6.5625 0.46875H11.4375C11.9897 0.46875 12.4375 0.916465 12.4375 1.46875V4.78125C12.4375 5.33354 11.9897 5.78125 11.4375 5.78125H10.25V9.01659L11.2916 11.8693C11.1409 11.8309 10.9823 11.7923 10.8164 11.7523L10.7174 11.7285C10.227 11.6106 9.64461 11.4706 9.18342 11.2876C9.12546 11.2646 9.06385 11.2388 9 11.2099C8.93615 11.2388 8.87454 11.2646 8.81658 11.2876C8.35539 11.4706 7.77299 11.6106 7.2826 11.7285L7.18358 11.7523C7.0177 11.7923 6.8591 11.8309 6.70832 11.8693L7.75 9.01659V5.78125H6.5625C6.01021 5.78125 5.5625 5.33354 5.5625 4.78125V1.46875ZM6.70832 11.8693C6.70832 11.8693 6.70834 11.8693 6.70832 11.8693L5.85044 14.2188H6.4375C6.98979 14.2188 7.4375 14.6665 7.4375 15.2188V18.5312C7.4375 19.0835 6.98979 19.5312 6.4375 19.5312H1.5625C1.01021 19.5312 0.5625 19.0835 0.5625 18.5312V15.2188C0.5625 14.6665 1.01021 14.2188 1.5625 14.2188H2.5486C2.58812 13.7585 2.64256 13.2755 2.71817 12.8219C2.80989 12.2716 2.95039 11.6479 3.19446 11.1597C3.57509 10.3985 4.34876 10.0267 4.85115 9.82914C5.41461 9.60757 6.06766 9.44969 6.59767 9.32193C7.09129 9.20292 7.47026 9.11123 7.75 9.01659L6.70832 11.8693ZM5.85044 14.2188L6.70832 11.8693C6.34667 11.9614 6.03001 12.0519 5.76604 12.1557C5.53805 12.2454 5.43818 12.312 5.40454 12.3355C5.33945 12.4936 5.25803 12.7896 5.18416 13.2329C5.13294 13.5402 5.09175 13.8767 5.05889 14.2188H5.85044ZM11.2916 11.8693L10.25 9.01659C10.5297 9.11123 10.9087 9.20292 11.4024 9.32193C11.9324 9.44969 12.5854 9.60757 13.1489 9.82914C13.6513 10.0267 14.4249 10.3985 14.8055 11.1597C15.0496 11.6479 15.1901 12.2716 15.2819 12.8219C15.3574 13.2755 15.4119 13.7585 15.4514 14.2188H16.4375C16.9897 14.2188 17.4375 14.6665 17.4375 15.2188V18.5312C17.4375 19.0835 16.9897 19.5312 16.4375 19.5312H11.5625C11.0102 19.5312 10.5625 19.0835 10.5625 18.5312V15.2188C10.5625 14.6665 11.0102 14.2188 11.5625 14.2188H12.1496L11.2916 11.8693ZM11.2916 11.8693L12.1496 14.2188H12.9411C12.9082 13.8767 12.8671 13.5402 12.8159 13.2329C12.742 12.7896 12.6605 12.4936 12.5955 12.3355C12.5619 12.312 12.462 12.2454 12.234 12.1557C11.97 12.0519 11.6534 11.9614 11.2916 11.8693Z" fill="#88999C"/>
</svg>
