<svg width="23" height="10" viewBox="0 0 23 10" fill="none" xmlns="http://www.w3.org/2000/svg">
<path d="M22 5.1L20.4 6.3L19.8 5.5C19.4 5 19.4 4.5 19.4 4.1H19.3C19.2 4.5 19.3 5 18.9 5.5L18.3 6.3L16.7 5.1L17.3 4.3C17.7 3.8 18.1 3.7 18.5 3.5V3.4C18 3.5 17.6 3.6 17 3.5L16 3.1L16.6 1.2L17.5 1.5C18.1 1.7 18.4 2.1 18.7 2.4L18.8 2.3C18.6 2 18.3 1.6 18.3 1V0H20.3V1C20.3 1.6 20 2 19.8 2.4L19.9 2.5C20.2 2.2 20.5 1.8 21.1 1.6L22 1.2L22.6 3.1L21.7 3.4C21.1 3.6 20.6 3.4 20.2 3.3V3.4C20.6 3.6 21.1 3.7 21.4 4.2L22 5.1ZM14 5.1L12.4 6.3L11.8 5.5C11.4 5 11.4 4.5 11.4 4.1H11.3C11.2 4.5 11.3 5 10.9 5.5L10.3 6.3L8.6 5.1L9.2 4.3C9.6 3.8 10 3.7 10.4 3.5V3.4C10 3.5 9.5 3.6 8.9 3.4L8 3.1L8.6 1.2L9.5 1.5C10.1 1.7 10.4 2.1 10.7 2.4L10.8 2.3C10.6 2 10.3 1.6 10.3 1V0H12.3V1C12.3 1.6 12 2 11.8 2.4L11.9 2.5C12.2 2.2 12.5 1.8 13.1 1.6L14 1.2L14.6 3.1L13.7 3.4C13.1 3.6 12.6 3.4 12.2 3.3V3.4C12.6 3.6 13.1 3.7 13.4 4.2L14 5.1ZM6 5.1L4.4 6.3L3.8 5.5C3.4 5 3.4 4.5 3.4 4.1H3.3C3.3 4.5 3.3 5 2.9 5.5L2.2 6.3L0.6 5.1L1.2 4.3C1.6 3.8 2 3.7 2.4 3.5V3.4C2 3.5 1.5 3.6 0.9 3.4L0 3.1L0.6 1.2L1.5 1.5C2.1 1.7 2.4 2.1 2.7 2.4L2.8 2.3C2.6 2 2.3 1.6 2.3 1V0H4.3V1C4.3 1.6 4 2 3.8 2.4L3.9 2.5C4.2 2.2 4.5 1.8 5.1 1.6L6 1.2L6.6 3.1L5.7 3.4C5.1 3.6 4.6 3.4 4.2 3.3V3.4C4.6 3.6 5.1 3.7 5.4 4.2L6 5.1Z" fill="#187DE5"/>
<path d="M6.3 8H0.3V10H6.3V8Z" fill="#187DE5"/>
<path d="M14.3 8H8.3V10H14.3V8Z" fill="#187DE5"/>
<path d="M16.3 8H22.3V10H16.3V8Z" fill="#187DE5"/>
</svg>
