<svg width="24" height="24" viewBox="0 0 24 24" fill="none" xmlns="http://www.w3.org/2000/svg">
<path fill-rule="evenodd" clip-rule="evenodd" d="M5.67282 2.91878C6.59287 1.99873 8.13259 2.18828 8.80202 3.304L10.7414 6.53623C11.2135 7.32318 11.0895 8.3305 10.4406 8.97943L9.41418 10.0058C9.62395 10.4359 10.1502 11.2659 11.445 12.5607C12.7399 13.8556 13.5699 14.3818 14 14.5916L15.0264 13.5652C15.6753 12.9163 16.6826 12.7923 17.4696 13.2644L20.7018 15.2038C21.8175 15.8732 22.0071 17.4129 21.087 18.333L18.5785 20.8416C18.022 21.398 17.2186 21.7572 16.3381 21.6475C14.5913 21.43 10.6451 20.551 7.02369 16.995C3.36808 13.4054 2.53246 9.38639 2.34212 7.63361C2.24806 6.76744 2.60684 5.98477 3.15109 5.44051L5.67282 2.91878ZM7.08703 4.33299L4.56531 6.85472C4.37504 7.04499 4.31234 7.25116 4.33043 7.4177C4.4908 8.8945 5.21028 12.4113 8.42496 15.5679C11.6322 18.7172 15.1085 19.479 16.5852 19.6629C16.7574 19.6843 16.9705 19.6211 17.1642 19.4273L19.6728 16.9188L16.4406 14.9794L15.2623 16.1577C14.9231 16.4969 14.3039 16.8323 13.5879 16.5845C12.8943 16.3443 11.7523 15.6965 10.0308 13.975C8.30928 12.2534 7.66149 11.1115 7.42133 10.4178C7.17346 9.70186 7.50888 9.08271 7.84807 8.74352L9.02637 7.56522L7.08703 4.33299Z" fill="#E3344C"/>
</svg>
