<svg width="22" height="22" viewBox="0 0 22 22" fill="none" xmlns="http://www.w3.org/2000/svg">
<path fill-rule="evenodd" clip-rule="evenodd" d="M10.8863 14.748C9.85134 14.7168 8.92759 14.2693 8.27009 13.5705C8.26884 13.5705 8.26884 13.5693 8.26884 13.5693C7.61134 12.8705 7.22009 11.9205 7.25134 10.8855C7.28259 9.85053 7.73134 8.92678 8.43009 8.26928C9.12884 7.61053 10.0788 7.22053 11.1138 7.25178C12.1488 7.28303 13.0726 7.73053 13.7301 8.42928H13.7313C14.3888 9.12928 14.7801 10.078 14.7488 11.113C14.7163 12.148 14.2688 13.073 13.5701 13.7305C12.8713 14.388 11.9213 14.7793 10.8863 14.748ZM20.5338 9.93803L18.3263 9.42553C18.1651 8.67678 17.8938 7.97053 17.5276 7.32178L18.8413 5.47428C19.0151 5.23178 18.9913 4.90053 18.7876 4.68303L17.7763 3.60928C17.5726 3.39178 17.2438 3.34928 16.9901 3.50678L15.0663 4.70678C14.4413 4.30178 13.7526 3.98803 13.0151 3.78303L12.6376 1.54803C12.5876 1.25428 12.3376 1.03553 12.0401 1.02678L10.5663 0.981779C10.2676 0.973029 10.0051 1.17553 9.93759 1.46553L9.42634 3.67428C8.67759 3.83428 7.97134 4.10553 7.32134 4.47178L5.47384 3.15803C5.23134 2.98553 4.90009 3.00803 4.68384 3.21178L3.60884 4.22303C3.39259 4.42678 3.35009 4.75678 3.50759 5.00928L4.70759 6.93303C4.30259 7.55803 3.98884 8.24803 3.78259 8.98553L1.54759 9.36178C1.25384 9.41178 1.03634 9.66178 1.02634 9.95928L0.982593 11.4343C0.972593 11.7318 1.17509 11.9943 1.46634 12.0618L3.67384 12.573C3.83509 13.3218 4.10634 14.0293 4.47259 14.678L3.15759 16.5255C2.98509 16.768 3.00759 17.0993 3.21259 17.3155L4.22384 18.3905C4.42759 18.6068 4.75634 18.6505 5.00884 18.4918L6.93259 17.2918C7.55884 17.698 8.24759 18.0118 8.98509 18.2168L9.36259 20.4518C9.41134 20.7455 9.66134 20.9643 9.96009 20.973L11.4338 21.018C11.7326 21.0268 11.9951 20.8243 12.0626 20.5343L12.5738 18.3255C13.3226 18.1655 14.0288 17.8943 14.6776 17.5268L16.5263 18.8418C16.7688 19.0143 17.0988 18.9918 17.3163 18.7868L18.3901 17.7768C18.6076 17.5718 18.6501 17.243 18.4926 16.9905L17.2926 15.0668C17.6976 14.4405 18.0113 13.7518 18.2163 13.0143L20.4526 12.638C20.7463 12.588 20.9638 12.338 20.9726 12.0405L21.0176 10.5655C21.0263 10.268 20.8238 10.0055 20.5338 9.93803Z" fill="#88999C"/>
</svg>
