<svg width="18" height="18" viewBox="0 0 18 18" fill="none" xmlns="http://www.w3.org/2000/svg">
<path fill-rule="evenodd" clip-rule="evenodd" d="M3.72733 1.43232C4.49404 0.665617 5.77714 0.823576 6.335 1.75334L7.95111 4.44687C8.34459 5.10266 8.24125 5.94209 7.70047 6.48287L6.84513 7.33821C7.01994 7.69659 7.45847 8.38826 8.53751 9.4673C9.61655 10.5463 10.3082 10.9849 10.6666 11.1597L11.5219 10.3044C12.0627 9.76358 12.9022 9.66024 13.558 10.0537L16.2515 11.6698C17.1813 12.2277 17.3392 13.5108 16.5725 14.2775L14.482 16.368C14.0183 16.8317 13.3488 17.131 12.615 17.0396C11.1594 16.8583 7.87093 16.1259 4.85305 13.1625C1.80672 10.1712 1.11036 6.82201 0.951743 5.36135C0.873359 4.63954 1.17234 3.98731 1.62589 3.53377L3.72733 1.43232ZM4.90584 2.61083L2.8044 4.71228C2.64584 4.87084 2.5936 5.04264 2.60867 5.18142C2.74231 6.41209 3.34188 9.34278 6.02078 11.9733C8.69346 14.5977 11.5904 15.2325 12.821 15.3857C12.9645 15.4036 13.1421 15.3509 13.3035 15.1895L15.394 13.099L12.7005 11.4829L11.7186 12.4648C11.4359 12.7475 10.9199 13.027 10.3233 12.8204C9.74522 12.6203 8.7936 12.0804 7.359 10.6458C5.92438 9.2112 5.38455 8.25959 5.18442 7.68153C4.97786 7.08489 5.25738 6.56894 5.54004 6.28628L6.52195 5.30436L4.90584 2.61083Z" fill="#88999C"/>
</svg>
