<svg width="9" height="12" viewBox="0 0 9 12" fill="none" xmlns="http://www.w3.org/2000/svg">
<path d="M0.43967 0.531274C0.405676 0.530788 0.37193 0.537795 0.340377 0.551892C0.308824 0.565988 0.280086 0.586895 0.255817 0.613409C0.231549 0.639923 0.212229 0.671521 0.198969 0.706383C0.18571 0.741246 0.178773 0.778685 0.178558 0.816545V2.07799C0.178558 2.23785 0.296121 2.36877 0.43967 2.36877H8.17238C8.20637 2.36853 8.23999 2.36081 8.2713 2.34604C8.3026 2.33127 8.33097 2.30976 8.35478 2.28273C8.37859 2.2557 8.39737 2.2237 8.41002 2.18856C8.42268 2.15342 8.42897 2.11584 8.42854 2.07799V0.816545C8.42881 0.778997 8.42237 0.741764 8.4096 0.707015C8.39682 0.672266 8.37796 0.640697 8.35412 0.614145C8.33028 0.587594 8.30193 0.566593 8.27073 0.552365C8.23952 0.538137 8.20609 0.530968 8.17238 0.531274H0.43967ZM0.43967 3.74689C0.371236 3.74676 0.305499 3.7766 0.256648 3.82997C0.207797 3.88334 0.179749 3.95596 0.178558 4.03216V5.2936C0.178558 5.45346 0.296121 5.58439 0.43967 5.58439H3.47855V10.8116C3.47855 10.971 3.59157 11.0969 3.73471 11.0969H4.87238C4.9061 11.0972 4.93953 11.09 4.97074 11.0758C5.00194 11.0616 5.03029 11.0406 5.05413 11.014C5.07797 10.9874 5.09683 10.9559 5.10961 10.9211C5.12238 10.8864 5.12882 10.8491 5.12855 10.8116V5.58439H8.17238C8.20637 5.58415 8.23999 5.57642 8.2713 5.56166C8.3026 5.54689 8.33097 5.52537 8.35478 5.49835C8.37859 5.47132 8.39737 5.43932 8.41002 5.40418C8.42268 5.36904 8.42897 5.33146 8.42854 5.2936V4.03216C8.42843 3.95654 8.40141 3.88405 8.35339 3.83058C8.30537 3.77711 8.24028 3.74701 8.17238 3.74689H0.43967Z" fill="#212529"/>
</svg>
