<svg width="120" height="51" viewBox="0 0 120 51" fill="none" xmlns="http://www.w3.org/2000/svg">
<g clip-path="url(#clip0_11_814)">
<path fill-rule="evenodd" clip-rule="evenodd" d="M13.0451 13.6419C13.046 10.1032 10.2431 7.31327 6.51511 7.3114C2.80579 7.30954 1.78613e-05 10.0976 -0.000914598 13.6372C-0.00277952 17.1768 2.80112 19.9667 6.51045 19.9677C10.2375 19.9695 13.0442 17.1815 13.0451 13.6419ZM9.93257 13.6409C9.93164 15.5543 8.50218 17.1619 6.51138 17.1619C4.52058 17.161 3.09205 15.5515 3.09298 13.6381C3.09392 11.7257 4.52431 10.1172 6.51418 10.1181C8.50498 10.119 9.9335 11.7285 9.93257 13.6409Z" fill="url(#paint0_linear_11_814)"/>
<path fill-rule="evenodd" clip-rule="evenodd" d="M89.1496 17.658L83.9381 17.6561L83.1231 19.7476L79.8661 19.7457L85.1009 7.52026L88.0139 7.5212L93.2198 19.7513L89.9814 19.7495L89.1496 17.658ZM37.525 19.7299L37.5259 17.0658L31.4453 17.064L31.4491 7.57155L28.3915 7.56968L28.3869 19.7262L37.525 19.7299ZM26.2338 19.7262L26.2385 7.56968L23.18 7.56875L23.1782 14.4149L17.2449 7.56595H14.911L14.9063 19.7215L17.9648 19.7224L17.9666 13.0544L23.8635 19.7252L26.2338 19.7262ZM42.0353 7.57528L42.0306 19.7317L38.9731 19.7299L38.9777 7.57435L42.0353 7.57528ZM55.5289 19.7364L55.5335 7.58087L52.4751 7.57901L52.4723 14.4261L46.54 7.57714L44.206 7.57621L44.2014 19.7317L47.2598 19.7336L47.2617 13.0656L53.1586 19.7355L55.5289 19.7364ZM60.7441 10.2104L60.7432 12.4269L66.1906 12.4287L66.1897 15.0032L60.7423 15.0014L60.7413 17.1106L66.9841 17.1134L66.9832 19.7411L57.6819 19.7373L57.6875 7.58087L66.9879 7.5846L66.9869 10.2123L60.7441 10.2104ZM79.5789 16.3674C79.5789 15.062 78.8189 13.8106 77.3176 13.488C78.404 13.1132 79.0371 11.9513 79.038 10.8249C79.038 8.84062 77.464 7.58927 74.8047 7.58833L68.7241 7.58554L68.7204 19.742L75.1618 19.7439C77.9303 19.7448 79.5779 18.3871 79.5789 16.3674ZM71.7826 10.0538L71.7816 12.5388L74.3328 12.5397C75.4723 12.5406 76.1064 12.0222 76.1064 11.2352C76.1064 10.4668 75.5096 10.0556 74.3338 10.0547L71.7826 10.0538ZM74.7655 17.2421L71.7798 17.2402L71.7807 14.8447L74.8196 14.8457C75.9423 14.8466 76.5754 15.2224 76.5754 15.973C76.5754 16.6882 76.0141 17.2421 74.7655 17.2421ZM86.5471 11.0431L88.1379 15.0834L84.9536 15.0825L86.5471 11.0431ZM105.873 7.59952L105.869 19.756L103.498 19.7551L97.6024 13.0842L97.5996 19.7523L94.542 19.7513L94.5467 7.59486L96.8806 7.59673L102.813 14.4456L102.816 7.59859L105.873 7.59952ZM111.081 17.2906L112.838 15.2895L116.274 19.7597L120.001 19.7616L114.919 12.9304L119.608 7.60512L115.99 7.60325L111.083 13.1253L111.086 7.60139L108.027 7.60046L108.023 19.7569L111.08 19.7579L111.081 17.2906Z" fill="#2B2A29"/>
<path d="M4.62688 31.5535C3.36806 31.5535 2.55029 32.0934 2.10924 32.7312V28.2013H0.244324V40.0911H2.04304V39.0607C2.41975 39.6985 3.286 40.2878 4.57839 40.2878C6.55707 40.2878 8.32408 38.7828 8.32408 35.9202C8.32408 33.0585 6.57385 31.5535 4.62688 31.5535ZM4.26788 38.6355C2.94286 38.6355 2.05982 37.5893 2.05982 35.9538V35.8876C2.05982 34.252 2.94286 33.2058 4.26788 33.2058C5.57612 33.2058 6.44238 34.3014 6.44238 35.9202C6.44238 37.5557 5.57612 38.6355 4.26788 38.6355Z" fill="#00A975"/>
<path d="M13.1812 37.7198L10.989 31.7502H8.97772L12.1835 39.927L10.8911 43.2148H12.8866L17.3838 31.7502H15.3725L13.1812 37.7198ZM29.8471 33.3037H24.3838V28.5771H22.4378V40.0911H24.3838V35.0698H29.8471V40.0911H31.7931V28.5771H29.8471V33.3037ZM44.1081 28.2013V40.0911H45.973V28.2013H44.1081ZM51.4839 37.7198L49.2926 31.7502H47.2813L50.4871 39.927L49.1947 43.2148H51.1901L55.6874 31.7502H53.6761L51.4839 37.7198ZM60.6593 35.6423L64.2576 31.7502H62.0496L58.8438 35.2171V28.2013H56.9798V40.0911H58.8438V36.1981L62.0496 40.0911H64.307L60.6593 35.6423ZM40.0519 32.7806C39.6761 32.1428 38.8089 31.5535 37.5175 31.5535C35.5388 31.5535 33.7718 33.0585 33.7718 35.9202C33.7718 38.7828 35.5388 40.2869 37.4681 40.2869C38.7931 40.2869 39.6435 39.6817 40.0519 39.0113V40.0911H41.8516V31.7502H40.0519V32.7806ZM40.0361 35.9528C40.0361 37.5884 39.153 38.6355 37.828 38.6355C36.5198 38.6355 35.6694 37.5399 35.6694 35.9202C35.6694 34.2847 36.5198 33.2058 37.828 33.2058C39.153 33.2058 40.0361 34.252 40.0361 35.8876V35.9528Z" fill="#00A975"/>
</g>
<defs>
<linearGradient id="paint0_linear_11_814" x1="1.87612" y1="18.086" x2="9.37776" y2="8.25412" gradientUnits="userSpaceOnUse">
<stop stop-color="#F39519"/>
<stop offset="1" stop-color="#FBBF0E"/>
</linearGradient>
<clipPath id="clip0_11_814">
<rect width="120" height="50.5262" fill="white"/>
</clipPath>
</defs>
</svg>
