<svg width="19" height="20" viewBox="0 0 19 20" fill="none" xmlns="http://www.w3.org/2000/svg">
<path fill-rule="evenodd" clip-rule="evenodd" d="M9.09091 0C8.58882 0 8.18182 0.407018 8.18182 0.909091V6.42888C6.83019 6.62395 5.56817 7.25047 4.59114 8.22755C3.83709 8.98155 3.29182 9.90536 2.99253 10.9091H1.81818V12.7273H2.72727V15.9375L0.711882 16.3853C0.295936 16.4777 0 16.8466 0 17.2727V20H1.81818V18.002L9.09091 16.3858L16.3636 18.002V20H18.1818V17.2727C18.1818 16.8466 17.8859 16.4777 17.4699 16.3853L15.4545 15.9375V12.7273H16.3636V10.9091H15.1893C14.89 9.90536 14.3447 8.98155 13.5906 8.22755C12.6136 7.25047 11.3516 6.62395 10 6.42888V5.45455H13.6364C14.1385 5.45455 14.5455 5.04753 14.5455 4.54545V0.909091C14.5455 0.407018 14.1385 0 13.6364 0H9.09091ZM13.6364 15.5334V12.7273H11.8182V15.1294L13.6364 15.5334ZM10 14.7253V12.7273H8.18182V14.7253L8.89373 14.5671C9.02355 14.5383 9.15827 14.5383 9.28809 14.5671L10 14.7253ZM6.36364 15.1294L4.54545 15.5334V12.7273H6.36364V15.1294ZM12.305 9.51318C12.7107 9.91882 13.0317 10.3933 13.2569 10.9091H4.92493C5.15005 10.3933 5.47112 9.91882 5.87679 9.51318C6.72923 8.66073 7.88536 8.18182 9.09091 8.18182C10.2965 8.18182 11.4526 8.66073 12.305 9.51318ZM12.7273 3.63636H10V1.81818H12.7273V3.63636Z" fill="#88999C"/>
</svg>
