<svg width="16" height="18" viewBox="0 0 16 18" fill="none" xmlns="http://www.w3.org/2000/svg">
<path d="M14.9173 9.75002L13.834 8.66669V6.50002C13.834 3.25002 11.2507 0.666687 8.00065 0.666687C4.75065 0.666687 2.16732 3.25002 2.16732 6.50002V8.66669L1.08398 9.75002C0.0839844 10.75 0.0839844 12.3334 1.08398 13.25L1.58398 13.75C1.75065 13.9167 1.91732 14 2.16732 14H3.33398C5.41732 14 4.75065 17.3334 8.00065 17.3334C11.2507 17.3334 10.6673 14 12.6673 14H13.834C14.084 14 14.2507 13.9167 14.4173 13.75L14.9173 13.25C15.9173 12.25 15.9173 10.75 14.9173 9.75002ZM8.00065 15.6667C6.58398 15.6667 7.00065 14.5 5.75065 14.0834V14H10.2507V14.0834C9.00065 14.5 9.41732 15.6667 8.00065 15.6667ZM13.7507 12.0834L13.5007 12.3334H2.50065L2.25065 12.0834C1.91732 11.75 1.91732 11.25 2.25065 10.9167L3.58398 9.58335C3.75065 9.41669 3.83398 9.25002 3.83398 9.00002V6.50002C3.83398 4.16669 5.66732 2.33335 8.00065 2.33335C10.334 2.33335 12.1673 4.16669 12.1673 6.50002V9.00002C12.1673 9.25002 12.2507 9.41669 12.4173 9.58335L13.7507 10.9167C14.084 11.25 14.084 11.75 13.7507 12.0834Z" fill="#88999C"/>
</svg>
