<svg width="60" height="20" viewBox="0 0 60 20" fill="none" xmlns="http://www.w3.org/2000/svg">
<g clip-path="url(#clip0_25_4395)">
<path d="M25.9999 19.1381H21.1395L24.1796 0.340698H29.0397L25.9999 19.1381Z" fill="#00579F"/>
<path d="M43.6194 0.800281C42.6607 0.419942 41.1401 0 39.26 0C34.4602 0 31.0802 2.55952 31.0594 6.21885C31.0196 8.9187 33.4794 10.4183 35.3192 11.3185C37.1996 12.2384 37.8388 12.8388 37.8388 13.6587C37.8197 14.918 36.3193 15.4985 34.92 15.4985C32.9795 15.4985 31.9397 15.1992 30.3596 14.4986L29.7196 14.1983L29.0395 18.4179C30.1794 18.9372 32.2796 19.3981 34.4602 19.4183C39.56 19.4183 42.8802 16.8984 42.9196 12.9988C42.939 10.8589 41.6401 9.21931 38.8398 7.87948C37.1398 7.0194 36.0987 6.43945 36.0987 5.55944C36.1187 4.75942 36.9793 3.94001 38.8982 3.94001C40.4783 3.89987 41.6393 4.27968 42.5188 4.65975L42.9584 4.85936L43.6194 0.800281Z" fill="#00579F"/>
<path d="M50.0793 12.4789C50.4796 11.399 52.0198 7.21949 52.0198 7.21949C51.9996 7.25963 52.4193 6.11967 52.6593 5.41986L52.999 7.03956C52.999 7.03956 53.9194 11.539 54.1193 12.4789C53.3596 12.4789 51.0393 12.4789 50.0793 12.4789ZM56.0789 0.340698H52.3194C51.16 0.340698 50.2792 0.680372 49.779 1.90033L42.5594 19.1378H47.6593C47.6593 19.1378 48.499 16.8178 48.6794 16.3181C49.2389 16.3181 54.2001 16.3181 54.9198 16.3181C55.0593 16.9781 55.4997 19.1378 55.4997 19.1378H60L56.0789 0.340698Z" fill="#00579F"/>
<path d="M17.0799 0.340698L12.32 13.1587L11.7998 10.5591C10.9198 7.55943 8.15988 4.30037 5.07996 2.67988L9.4399 19.1182H14.5797L22.2194 0.340698H17.0799Z" fill="#00579F"/>
<path d="M7.89994 0.340698H0.0800011L0 0.720506C6.10004 2.2804 10.14 6.04047 11.7998 10.5599L10.0999 1.92079C9.81998 0.72024 8.9599 0.3803 7.89994 0.340698Z" fill="#FAA61A"/>
</g>
<defs>
<clipPath id="clip0_25_4395">
<rect width="60" height="19.4183" fill="white"/>
</clipPath>
</defs>
</svg>
